<svg width="400" height="600" viewBox="0 0 400 600" fill="none" xmlns="http://www.w3.org/2000/svg">
  <rect width="400" height="600" rx="28" fill="#7C2D12"/>
  <rect x="24" y="24" width="352" height="552" rx="22" fill="url(#bg)"/>
  <circle cx="200" cy="156" r="96" fill="#FDBA74" fill-opacity="0.12"/>
  
      <path d="M200 434C150 392 116 360 116 316C116 282 142 258 172 258C190 258 206 266 216 280C226 266 242 258 260 258C290 258 316 282 316 316C316 360 282 392 232 434L216 448L200 434Z" fill="#FDBA74"/>
      <path d="M118 190C142 162 162 150 184 150C174 176 152 198 118 190Z" fill="#FDBA74"/>
      <path d="M282 190C258 162 238 150 216 150C226 176 248 198 282 190Z" fill="#FDBA74"/>
    
  <text x="200" y="90" fill="#FFF7ED" font-family="Arial, sans-serif" font-size="18" text-anchor="middle" letter-spacing="4">ROMANCE</text>
  <text x="200" y="438" fill="#FFF7ED" font-family="Georgia, serif" font-size="46" font-weight="700" text-anchor="middle" letter-spacing="2">AUTUMN</text>
<text x="200" y="486" fill="#FFF7ED" font-family="Georgia, serif" font-size="46" font-weight="700" text-anchor="middle" letter-spacing="2">PROMISE</text>
  <text x="200" y="540" fill="#FFF7ED" font-family="Arial, sans-serif" font-size="20" text-anchor="middle" letter-spacing="3">IVY MONROE</text>
  <defs>
    <linearGradient id="bg" x1="36" y1="40" x2="352" y2="568" gradientUnits="userSpaceOnUse">
      <stop stop-color="#C2410C"/>
      <stop offset="1" stop-color="#7C2D12"/>
    </linearGradient>
  </defs>
</svg>
