<svg width="400" height="600" viewBox="0 0 400 600" fill="none" xmlns="http://www.w3.org/2000/svg">
  <rect width="400" height="600" rx="28" fill="#0B1120"/>
  <rect x="24" y="24" width="352" height="552" rx="22" fill="url(#bg)"/>
  <circle cx="200" cy="156" r="96" fill="#FB7185" fill-opacity="0.12"/>
  
      <path d="M88 398C122 350 158 326 200 326C242 326 278 350 312 398" stroke="#F8FAFC" stroke-width="10" stroke-linecap="round"/>
      <path d="M118 366C142 334 168 318 200 318C232 318 258 334 282 366" stroke="#FB7185" stroke-width="8" stroke-linecap="round"/>
      <path d="M148 334C164 316 182 306 200 306C218 306 236 316 252 334" stroke="#F8FAFC" stroke-width="8" stroke-linecap="round"/>
      <path d="M176 302C184 292 192 286 200 286C208 286 216 292 224 302" stroke="#FB7185" stroke-width="8" stroke-linecap="round"/>
      <path d="M122 166L170 214L222 150L280 208" stroke="#FB7185" stroke-width="10" stroke-linecap="round" stroke-linejoin="round"/>
    
  <text x="200" y="90" fill="#F8FAFC" font-family="Arial, sans-serif" font-size="18" text-anchor="middle" letter-spacing="4">DYSTOPIAN FICTION</text>
  <text x="200" y="438" fill="#F8FAFC" font-family="Georgia, serif" font-size="46" font-weight="700" text-anchor="middle" letter-spacing="2">BROKEN</text>
<text x="200" y="486" fill="#F8FAFC" font-family="Georgia, serif" font-size="46" font-weight="700" text-anchor="middle" letter-spacing="2">SIGNAL</text>
  <text x="200" y="540" fill="#F8FAFC" font-family="Arial, sans-serif" font-size="20" text-anchor="middle" letter-spacing="3">SERA QUINN</text>
  <defs>
    <linearGradient id="bg" x1="36" y1="40" x2="352" y2="568" gradientUnits="userSpaceOnUse">
      <stop stop-color="#1E293B"/>
      <stop offset="1" stop-color="#0B1120"/>
    </linearGradient>
  </defs>
</svg>
