<svg width="400" height="600" viewBox="0 0 400 600" fill="none" xmlns="http://www.w3.org/2000/svg">
  <rect width="400" height="600" rx="28" fill="#111827"/>
  <rect x="24" y="24" width="352" height="552" rx="22" fill="url(#bg)"/>
  <circle cx="200" cy="156" r="96" fill="#F97316" fill-opacity="0.12"/>
  
      <path d="M82 444H318" stroke="#F97316" stroke-width="10" stroke-linecap="round"/>
      <rect x="100" y="254" width="44" height="190" fill="#F3F4F6" fill-opacity="0.16"/>
      <rect x="154" y="204" width="56" height="240" fill="#F3F4F6" fill-opacity="0.16"/>
      <rect x="220" y="166" width="72" height="278" fill="#F3F4F6" fill-opacity="0.16"/>
      <path d="M120 284H124M120 314H124M120 344H124M120 374H124M172 236H176M172 268H176M172 300H176M240 204H244M240 236H244M240 268H244M240 300H244" stroke="#F97316" stroke-width="8" stroke-linecap="round"/>
    
  <text x="200" y="90" fill="#F3F4F6" font-family="Arial, sans-serif" font-size="18" text-anchor="middle" letter-spacing="4">DYSTOPIAN FICTION</text>
  <text x="200" y="438" fill="#F3F4F6" font-family="Georgia, serif" font-size="46" font-weight="700" text-anchor="middle" letter-spacing="2">IRON</text>
<text x="200" y="486" fill="#F3F4F6" font-family="Georgia, serif" font-size="46" font-weight="700" text-anchor="middle" letter-spacing="2">CITY</text>
  <text x="200" y="540" fill="#F3F4F6" font-family="Arial, sans-serif" font-size="20" text-anchor="middle" letter-spacing="3">MARCUS VALE</text>
  <defs>
    <linearGradient id="bg" x1="36" y1="40" x2="352" y2="568" gradientUnits="userSpaceOnUse">
      <stop stop-color="#374151"/>
      <stop offset="1" stop-color="#111827"/>
    </linearGradient>
  </defs>
</svg>
