<svg width="400" height="600" viewBox="0 0 400 600" fill="none" xmlns="http://www.w3.org/2000/svg">
  <rect width="400" height="600" rx="28" fill="#1E1B4B"/>
  <rect x="24" y="24" width="352" height="552" rx="22" fill="url(#bg)"/>
  <circle cx="200" cy="156" r="96" fill="#F9A8D4" fill-opacity="0.12"/>
  
      <path d="M200 118V222" stroke="#FDF2F8" stroke-width="8" stroke-linecap="round"/>
      <path d="M150 158H250" stroke="#F9A8D4" stroke-width="8" stroke-linecap="round"/>
      <path d="M130 198C154 222 176 234 200 234C224 234 246 222 270 198" stroke="#FDF2F8" stroke-width="8" stroke-linecap="round"/>
      <circle cx="150" cy="210" r="12" fill="#F9A8D4"/>
      <circle cx="200" cy="222" r="12" fill="#F9A8D4"/>
      <circle cx="250" cy="210" r="12" fill="#F9A8D4"/>
      <path d="M98 430C128 372 162 340 200 340C238 340 272 372 302 430" stroke="#FDF2F8" stroke-width="12" stroke-linecap="round"/>
    
  <text x="200" y="90" fill="#FDF2F8" font-family="Arial, sans-serif" font-size="18" text-anchor="middle" letter-spacing="4">CLASSIC FICTION</text>
  <text x="200" y="438" fill="#FDF2F8" font-family="Georgia, serif" font-size="46" font-weight="700" text-anchor="middle" letter-spacing="2">MIDNIGHT</text>
<text x="200" y="486" fill="#FDF2F8" font-family="Georgia, serif" font-size="46" font-weight="700" text-anchor="middle" letter-spacing="2">BALLROOM</text>
  <text x="200" y="540" fill="#FDF2F8" font-family="Arial, sans-serif" font-size="20" text-anchor="middle" letter-spacing="3">CLARA ELLIS</text>
  <defs>
    <linearGradient id="bg" x1="36" y1="40" x2="352" y2="568" gradientUnits="userSpaceOnUse">
      <stop stop-color="#312E81"/>
      <stop offset="1" stop-color="#1E1B4B"/>
    </linearGradient>
  </defs>
</svg>
