<svg width="400" height="600" viewBox="0 0 400 600" fill="none" xmlns="http://www.w3.org/2000/svg">
  <rect width="400" height="600" rx="28" fill="#7C2D12"/>
  <rect x="24" y="24" width="352" height="552" rx="22" fill="url(#bg)"/>
  <circle cx="200" cy="178" r="88" fill="#FFF1F2" fill-opacity="0.18"/>
  <path d="M140 280C140 240 168 214 200 214C232 214 260 240 260 280V332H140V280Z" fill="#FFE4E6"/>
  <path d="M164 214C164 194 180 178 200 178C220 178 236 194 236 214" stroke="#FBCFE8" stroke-width="12" stroke-linecap="round"/>
  <path d="M138 332C160 360 179 372 200 372C221 372 240 360 262 332" stroke="#FBCFE8" stroke-width="10" stroke-linecap="round"/>
  <path d="M116 354C146 392 172 408 200 408C228 408 254 392 284 354" stroke="#FED7AA" stroke-width="8" stroke-linecap="round"/>
  <text x="200" y="88" fill="#FFF7ED" font-family="Georgia, serif" font-size="18" text-anchor="middle" letter-spacing="5">ROMANCE</text>
  <text x="200" y="458" fill="#FFF7ED" font-family="Georgia, serif" font-size="42" font-weight="700" text-anchor="middle">PRIDE AND</text>
  <text x="200" y="508" fill="#FED7AA" font-family="Georgia, serif" font-size="48" font-weight="700" text-anchor="middle">PREJUDICE</text>
  <text x="200" y="544" fill="#FFF7ED" font-family="Arial, sans-serif" font-size="20" text-anchor="middle" letter-spacing="3">JANE AUSTEN</text>
  <defs>
    <linearGradient id="bg" x1="44" y1="32" x2="346" y2="564" gradientUnits="userSpaceOnUse">
      <stop stop-color="#BE185D"/>
      <stop offset="1" stop-color="#9A3412"/>
    </linearGradient>
  </defs>
</svg>
