<svg width="400" height="600" viewBox="0 0 400 600" fill="none" xmlns="http://www.w3.org/2000/svg">
  <rect width="400" height="600" rx="28" fill="#134E4A"/>
  <rect x="24" y="24" width="352" height="552" rx="22" fill="url(#bg)"/>
  <circle cx="200" cy="156" r="96" fill="#FDE68A" fill-opacity="0.12"/>
  
      <circle cx="200" cy="174" r="68" fill="#FDE68A" fill-opacity="0.24"/>
      <path d="M70 366C124 326 168 308 200 308C232 308 276 326 330 366" stroke="#ECFDF5" stroke-width="10" stroke-linecap="round"/>
      <path d="M96 438C120 380 156 352 200 352C244 352 280 380 304 438" stroke="#FDE68A" stroke-width="12" stroke-linecap="round"/>
      <path d="M140 258C156 240 174 232 200 232C226 232 244 240 260 258" stroke="#ECFDF5" stroke-width="8" stroke-linecap="round"/>
    
  <text x="200" y="90" fill="#ECFDF5" font-family="Arial, sans-serif" font-size="18" text-anchor="middle" letter-spacing="4">CLASSIC FICTION</text>
  <text x="200" y="438" fill="#ECFDF5" font-family="Georgia, serif" font-size="46" font-weight="700" text-anchor="middle" letter-spacing="2">QUIET</text>
<text x="200" y="486" fill="#ECFDF5" font-family="Georgia, serif" font-size="46" font-weight="700" text-anchor="middle" letter-spacing="2">SUMMER</text>
  <text x="200" y="540" fill="#ECFDF5" font-family="Arial, sans-serif" font-size="20" text-anchor="middle" letter-spacing="3">MIRA BENNETT</text>
  <defs>
    <linearGradient id="bg" x1="36" y1="40" x2="352" y2="568" gradientUnits="userSpaceOnUse">
      <stop stop-color="#0F766E"/>
      <stop offset="1" stop-color="#134E4A"/>
    </linearGradient>
  </defs>
</svg>
