<svg width="400" height="600" viewBox="0 0 400 600" fill="none" xmlns="http://www.w3.org/2000/svg">
  <rect width="400" height="600" rx="28" fill="#881337"/>
  <rect x="24" y="24" width="352" height="552" rx="22" fill="url(#bg)"/>
  <circle cx="200" cy="156" r="96" fill="#FDA4AF" fill-opacity="0.12"/>
  
      <rect x="92" y="182" width="216" height="146" rx="18" fill="#FFF1F2" fill-opacity="0.1" stroke="#FDA4AF" stroke-width="4"/>
      <path d="M92 208L200 284L308 208" stroke="#FDA4AF" stroke-width="8" stroke-linecap="round" stroke-linejoin="round"/>
      <path d="M200 396C176 372 160 354 160 332C160 314 174 300 192 300C202 300 212 304 220 314C228 304 238 300 248 300C266 300 280 314 280 332C280 354 264 372 240 396L220 412L200 396Z" fill="#FDA4AF"/>
    
  <text x="200" y="90" fill="#FFF1F2" font-family="Arial, sans-serif" font-size="18" text-anchor="middle" letter-spacing="4">ROMANCE</text>
  <text x="200" y="438" fill="#FFF1F2" font-family="Georgia, serif" font-size="46" font-weight="700" text-anchor="middle" letter-spacing="2">ROSY</text>
<text x="200" y="486" fill="#FFF1F2" font-family="Georgia, serif" font-size="46" font-weight="700" text-anchor="middle" letter-spacing="2">LETTER</text>
  <text x="200" y="540" fill="#FFF1F2" font-family="Arial, sans-serif" font-size="20" text-anchor="middle" letter-spacing="3">PAIGE ROWAN</text>
  <defs>
    <linearGradient id="bg" x1="36" y1="40" x2="352" y2="568" gradientUnits="userSpaceOnUse">
      <stop stop-color="#BE185D"/>
      <stop offset="1" stop-color="#881337"/>
    </linearGradient>
  </defs>
</svg>
