<svg width="400" height="600" viewBox="0 0 400 600" fill="none" xmlns="http://www.w3.org/2000/svg">
  <rect width="400" height="600" rx="28" fill="#581C87"/>
  <rect x="24" y="24" width="352" height="552" rx="22" fill="url(#bg)"/>
  <circle cx="200" cy="156" r="96" fill="#F0ABFC" fill-opacity="0.12"/>
  
      <path d="M144 410C162 358 176 326 188 312C176 284 176 252 196 230C214 246 220 274 216 304C236 316 254 346 272 410" stroke="#FAF5FF" stroke-width="12" stroke-linecap="round" stroke-linejoin="round"/>
      <path d="M132 222C150 208 164 202 180 202C172 220 158 232 132 222Z" fill="#F0ABFC"/>
      <path d="M268 222C250 208 236 202 220 202C228 220 242 232 268 222Z" fill="#F0ABFC"/>
    
  <text x="200" y="90" fill="#FAF5FF" font-family="Arial, sans-serif" font-size="18" text-anchor="middle" letter-spacing="4">ROMANCE</text>
  <text x="200" y="438" fill="#FAF5FF" font-family="Georgia, serif" font-size="46" font-weight="700" text-anchor="middle" letter-spacing="2">SECRET</text>
<text x="200" y="486" fill="#FAF5FF" font-family="Georgia, serif" font-size="46" font-weight="700" text-anchor="middle" letter-spacing="2">WALTZ</text>
  <text x="200" y="540" fill="#FAF5FF" font-family="Arial, sans-serif" font-size="20" text-anchor="middle" letter-spacing="3">JULIAN WEST</text>
  <defs>
    <linearGradient id="bg" x1="36" y1="40" x2="352" y2="568" gradientUnits="userSpaceOnUse">
      <stop stop-color="#7E22CE"/>
      <stop offset="1" stop-color="#581C87"/>
    </linearGradient>
  </defs>
</svg>
