<svg width="400" height="600" viewBox="0 0 400 600" fill="none" xmlns="http://www.w3.org/2000/svg">
  <rect width="400" height="600" rx="28" fill="#09090B"/>
  <rect x="24" y="24" width="352" height="552" rx="22" fill="url(#bg)"/>
  <circle cx="200" cy="156" r="96" fill="#A855F7" fill-opacity="0.12"/>
  
      <circle cx="200" cy="220" r="74" fill="none" stroke="#F4F4F5" stroke-width="12"/>
      <circle cx="200" cy="220" r="28" fill="#A855F7"/>
      <path d="M200 134V106M200 334V306M286 220H314M86 220H114M258 162L278 142M122 298L142 278M258 278L278 298M122 142L142 162" stroke="#A855F7" stroke-width="10" stroke-linecap="round"/>
      <path d="M200 220L246 186" stroke="#F4F4F5" stroke-width="10" stroke-linecap="round"/>
    
  <text x="200" y="90" fill="#F4F4F5" font-family="Arial, sans-serif" font-size="18" text-anchor="middle" letter-spacing="4">DYSTOPIAN FICTION</text>
  <text x="200" y="438" fill="#F4F4F5" font-family="Georgia, serif" font-size="46" font-weight="700" text-anchor="middle" letter-spacing="2">SHADOW</text>
<text x="200" y="486" fill="#F4F4F5" font-family="Georgia, serif" font-size="46" font-weight="700" text-anchor="middle" letter-spacing="2">MACHINE</text>
  <text x="200" y="540" fill="#F4F4F5" font-family="Arial, sans-serif" font-size="20" text-anchor="middle" letter-spacing="3">RHEA KNOX</text>
  <defs>
    <linearGradient id="bg" x1="36" y1="40" x2="352" y2="568" gradientUnits="userSpaceOnUse">
      <stop stop-color="#27272A"/>
      <stop offset="1" stop-color="#09090B"/>
    </linearGradient>
  </defs>
</svg>
